<svg xmlns="http://www.w3.org/2000/svg" xmlns:xlink="http://www.w3.org/1999/xlink" width="500" zoomAndPan="magnify" viewBox="0 0 375 374.999991" height="500" preserveAspectRatio="xMidYMid meet" version="1.0"><defs><g/><clipPath id="7ed6c3352f"><path d="M 132 224 L 359.203125 224 L 359.203125 304 L 132 304 Z M 132 224 " clip-rule="nonzero"/></clipPath></defs><path fill="#3f5965" d="M 252.65625 324.203125 C 256.71875 323 260.671875 321.609375 264.523438 320.0625 C 197.917969 333.242188 131.003906 293.769531 111.289062 227.382812 C 91.574219 160.996094 126.101562 91.402344 189.101562 66.089844 C 185.03125 66.894531 180.960938 67.890625 176.902344 69.09375 C 106.453125 90.015625 66.304688 164.082031 87.226562 234.527344 C 108.144531 304.976562 182.210938 345.125 252.65625 324.203125 " fill-opacity="1" fill-rule="nonzero"/><path fill="#289db9" d="M 87.792969 290.433594 C 91.324219 293.203125 94.953125 295.765625 98.652344 298.148438 C 46.410156 248.660156 39.484375 166.617188 84.773438 108.859375 C 130.0625 51.101562 211.390625 38.253906 271.90625 77.1875 C 268.710938 74.160156 265.359375 71.25 261.828125 68.480469 C 200.539062 20.421875 111.894531 31.152344 63.835938 92.4375 C 15.777344 153.730469 26.503906 242.375 87.792969 290.433594 " fill-opacity="1" fill-rule="nonzero"/><g clip-path="url(#7ed6c3352f)"><path fill="#289db9" d="M 218.933594 283.992188 C 182.589844 274.21875 152.691406 252.429688 132.363281 224.050781 C 148.386719 259.441406 179.542969 287.640625 219.992188 298.511719 C 272.828125 312.714844 326.765625 293.382812 359.226562 253.550781 C 321.480469 284.652344 269.761719 297.652344 218.933594 283.992188 " fill-opacity="1" fill-rule="nonzero"/></g><g fill="#3f5965" fill-opacity="1"><g transform="translate(129.209754, 198.13492)"><g><path d="M 14.03125 -9.5 L 38.390625 -9.5 L 36.734375 0 L 0.828125 0 L 10.796875 -57.390625 L 22.359375 -57.390625 Z M 14.03125 -9.5 "/></g></g></g><g fill="#3f5965" fill-opacity="1"><g transform="translate(168.224394, 198.13492)"><g><path d="M 11.859375 0 L 0.671875 0 L 8.078125 -42.65625 L 19.28125 -42.65625 Z M 9.375 -53.5 C 9.320312 -55.257812 9.898438 -56.71875 11.109375 -57.875 C 12.328125 -59.03125 13.789062 -59.609375 15.5 -59.609375 C 17.175781 -59.660156 18.628906 -59.144531 19.859375 -58.0625 C 21.097656 -56.988281 21.742188 -55.597656 21.796875 -53.890625 C 21.847656 -52.253906 21.300781 -50.832031 20.15625 -49.625 C 19.019531 -48.414062 17.53125 -47.785156 15.6875 -47.734375 C 14.03125 -47.679688 12.578125 -48.179688 11.328125 -49.234375 C 10.085938 -50.285156 9.4375 -51.707031 9.375 -53.5 Z M 9.375 -53.5 "/></g></g></g><g fill="#3f5965" fill-opacity="1"><g transform="translate(185.597506, 198.13492)"><g><path d="M 41.109375 -21.203125 C 40.328125 -14.472656 38.28125 -9.082031 34.96875 -5.03125 C 31.65625 -0.988281 27.367188 0.960938 22.109375 0.828125 C 17.617188 0.722656 14.203125 -1.085938 11.859375 -4.609375 L 10.25 0 L 0.125 0 L 10.609375 -60.546875 L 21.765625 -60.546875 L 17.46875 -38.75 C 20.457031 -41.976562 23.925781 -43.539062 27.875 -43.4375 C 32 -43.382812 35.234375 -41.90625 37.578125 -39 C 39.929688 -36.101562 41.191406 -32.09375 41.359375 -26.96875 C 41.410156 -25.332031 41.328125 -23.410156 41.109375 -21.203125 Z M 30.078125 -22.03125 C 30.316406 -24.269531 30.394531 -26.003906 30.3125 -27.234375 C 30.019531 -31.804688 28.128906 -34.132812 24.640625 -34.21875 C 21.347656 -34.320312 18.628906 -32.835938 16.484375 -29.765625 L 13.40625 -12.8125 C 14.40625 -9.96875 16.535156 -8.492188 19.796875 -8.390625 C 25.253906 -8.234375 28.601562 -12.203125 29.84375 -20.296875 Z M 30.078125 -22.03125 "/></g></g></g><g fill="#3f5965" fill-opacity="1"><g transform="translate(226.26778, 198.13492)"><g><path d="M 20.375 0.78125 C 16.644531 0.757812 13.34375 -0.148438 10.46875 -1.953125 C 7.59375 -3.753906 5.441406 -6.222656 4.015625 -9.359375 C 2.597656 -12.503906 2.046875 -15.96875 2.359375 -19.75 L 2.484375 -21.328125 C 2.878906 -25.484375 4.085938 -29.296875 6.109375 -32.765625 C 8.128906 -36.234375 10.726562 -38.90625 13.90625 -40.78125 C 17.09375 -42.65625 20.617188 -43.539062 24.484375 -43.4375 C 29.972656 -43.332031 34.128906 -41.316406 36.953125 -37.390625 C 39.773438 -33.460938 40.847656 -28.488281 40.171875 -22.46875 L 39.546875 -17.625 L 13.40625 -17.625 C 13.300781 -14.863281 13.96875 -12.65625 15.40625 -11 C 16.851562 -9.34375 18.828125 -8.488281 21.328125 -8.4375 C 25.367188 -8.332031 28.914062 -9.894531 31.96875 -13.125 L 37.0625 -6.8125 C 35.457031 -4.394531 33.140625 -2.507812 30.109375 -1.15625 C 27.085938 0.195312 23.84375 0.84375 20.375 0.78125 Z M 23.921875 -34.25 C 21.878906 -34.300781 20.0625 -33.65625 18.46875 -32.3125 C 16.875 -30.976562 15.445312 -28.65625 14.1875 -25.34375 L 29.484375 -25.34375 L 29.71875 -26.375 C 29.875 -27.425781 29.890625 -28.425781 29.765625 -29.375 C 29.503906 -30.894531 28.859375 -32.082031 27.828125 -32.9375 C 26.804688 -33.789062 25.503906 -34.226562 23.921875 -34.25 Z M 23.921875 -34.25 "/></g></g></g><g fill="#3f5965" fill-opacity="1"><g transform="translate(265.203585, 198.13492)"><g><path d="M 29.328125 -31.96875 C 27.804688 -32.226562 26.554688 -32.359375 25.578125 -32.359375 C 21.609375 -32.460938 18.46875 -30.976562 16.15625 -27.90625 L 11.234375 0 L 0.125 0 L 7.53125 -42.65625 L 17.96875 -42.6875 L 16.953125 -37.484375 C 19.628906 -41.503906 22.941406 -43.515625 26.890625 -43.515625 C 27.992188 -43.515625 29.28125 -43.332031 30.75 -42.96875 Z M 29.328125 -31.96875 "/></g></g></g><g fill="#3f5965" fill-opacity="1"><g transform="translate(290.381841, 198.13492)"><g><path d="M 22.671875 -53.140625 L 20.8125 -42.65625 L 27.90625 -42.65625 L 26.453125 -34.296875 L 19.359375 -34.296875 L 15.734375 -12.9375 C 15.578125 -11.59375 15.679688 -10.566406 16.046875 -9.859375 C 16.410156 -9.148438 17.300781 -8.769531 18.71875 -8.71875 C 19.144531 -8.6875 20.273438 -8.75 22.109375 -8.90625 L 21.328125 -0.203125 C 19.359375 0.453125 17.226562 0.753906 14.9375 0.703125 C 11.289062 0.648438 8.570312 -0.488281 6.78125 -2.71875 C 4.988281 -4.957031 4.253906 -7.976562 4.578125 -11.78125 L 8.234375 -34.296875 L 2.203125 -34.296875 L 3.671875 -42.65625 L 9.703125 -42.65625 L 11.515625 -53.140625 Z M 22.671875 -53.140625 "/></g></g></g><g fill="#3f5965" fill-opacity="1"><g transform="translate(313.431423, 198.13492)"><g><path d="M 18.21875 -16.234375 L 30.390625 -42.65625 L 42.765625 -42.65625 L 17.8125 6.421875 C 16.03125 10.179688 13.9375 12.941406 11.53125 14.703125 C 9.125 16.460938 6.34375 17.34375 3.1875 17.34375 C 1.957031 17.34375 0.171875 17.066406 -2.171875 16.515625 L -1.34375 7.84375 L 0.203125 7.921875 C 3.828125 8.023438 6.476562 6.695312 8.15625 3.9375 L 10.609375 -0.59375 L 3.625 -42.65625 L 15.140625 -42.65625 Z M 18.21875 -16.234375 "/></g></g></g><g fill="#289db9" fill-opacity="1"><g transform="translate(141.600245, 237.015433)"><g><path d="M 2.9375 0 L 2.28125 -16.90625 L 4.8125 -16.90625 L 5.109375 -3.234375 L 11.03125 -16.90625 L 13.890625 -16.90625 L 14.015625 -2.96875 L 20.34375 -16.90625 L 23.140625 -16.90625 L 15.28125 0 L 12.21875 0 L 11.953125 -13.953125 L 5.75 0 Z M 2.9375 0 "/></g></g></g><g fill="#289db9" fill-opacity="1"><g transform="translate(162.95846, 237.015433)"><g><path d="M 6.03125 0.296875 C 4.375 0.296875 3.066406 -0.179688 2.109375 -1.140625 C 1.160156 -2.097656 0.6875 -3.394531 0.6875 -5.03125 C 0.6875 -6.5 0.976562 -7.816406 1.5625 -8.984375 C 2.144531 -10.148438 2.96875 -11.066406 4.03125 -11.734375 C 5.101562 -12.410156 6.367188 -12.75 7.828125 -12.75 C 8.953125 -12.75 9.882812 -12.519531 10.625 -12.0625 C 11.375 -11.613281 11.9375 -10.992188 12.3125 -10.203125 C 12.695312 -9.421875 12.890625 -8.550781 12.890625 -7.59375 C 12.890625 -6.988281 12.8125 -6.351562 12.65625 -5.6875 L 2.9375 -5.6875 C 2.914062 -5.570312 2.90625 -5.453125 2.90625 -5.328125 C 2.90625 -5.210938 2.90625 -5.097656 2.90625 -4.984375 C 2.90625 -4.128906 3.066406 -3.453125 3.390625 -2.953125 C 3.722656 -2.453125 4.148438 -2.09375 4.671875 -1.875 C 5.203125 -1.664062 5.738281 -1.5625 6.28125 -1.5625 C 6.988281 -1.5625 7.59375 -1.675781 8.09375 -1.90625 C 8.601562 -2.132812 9.035156 -2.4375 9.390625 -2.8125 L 11.359375 -2.203125 C 10.785156 -1.460938 10.054688 -0.859375 9.171875 -0.390625 C 8.285156 0.0664062 7.238281 0.296875 6.03125 0.296875 Z M 3.234375 -7.421875 L 10.65625 -7.421875 C 10.675781 -7.503906 10.6875 -7.578125 10.6875 -7.640625 C 10.6875 -7.710938 10.6875 -7.78125 10.6875 -7.84375 C 10.6875 -8.351562 10.578125 -8.84375 10.359375 -9.3125 C 10.148438 -9.789062 9.8125 -10.179688 9.34375 -10.484375 C 8.882812 -10.785156 8.273438 -10.9375 7.515625 -10.9375 C 6.890625 -10.9375 6.28125 -10.800781 5.6875 -10.53125 C 5.101562 -10.257812 4.59375 -9.863281 4.15625 -9.34375 C 3.71875 -8.820312 3.410156 -8.179688 3.234375 -7.421875 Z M 3.234375 -7.421875 "/></g></g></g><g fill="#289db9" fill-opacity="1"><g transform="translate(176.674284, 237.015433)"><g><path d="M 6.734375 0.296875 C 5.785156 0.296875 4.992188 0.0820312 4.359375 -0.34375 C 3.734375 -0.769531 3.222656 -1.347656 2.828125 -2.078125 L 1.796875 0 L 0.171875 0 L 3.765625 -16.90625 L 5.953125 -16.90625 L 4.65625 -10.890625 C 5.226562 -11.628906 5.828125 -12.125 6.453125 -12.375 C 7.078125 -12.625 7.660156 -12.75 8.203125 -12.75 C 9.398438 -12.75 10.332031 -12.488281 11 -11.96875 C 11.675781 -11.445312 12.160156 -10.773438 12.453125 -9.953125 C 12.742188 -9.140625 12.890625 -8.296875 12.890625 -7.421875 C 12.890625 -6.503906 12.753906 -5.59375 12.484375 -4.6875 C 12.222656 -3.789062 11.835938 -2.960938 11.328125 -2.203125 C 10.816406 -1.441406 10.175781 -0.832031 9.40625 -0.375 C 8.632812 0.0703125 7.742188 0.296875 6.734375 0.296875 Z M 6.5 -1.515625 C 7.226562 -1.515625 7.847656 -1.703125 8.359375 -2.078125 C 8.878906 -2.460938 9.300781 -2.945312 9.625 -3.53125 C 9.957031 -4.125 10.203125 -4.757812 10.359375 -5.4375 C 10.523438 -6.113281 10.609375 -6.753906 10.609375 -7.359375 C 10.609375 -8.410156 10.378906 -9.269531 9.921875 -9.9375 C 9.460938 -10.601562 8.742188 -10.9375 7.765625 -10.9375 C 7.078125 -10.9375 6.46875 -10.757812 5.9375 -10.40625 C 5.40625 -10.0625 4.957031 -9.609375 4.59375 -9.046875 C 4.226562 -8.492188 3.953125 -7.890625 3.765625 -7.234375 C 3.585938 -6.578125 3.5 -5.945312 3.5 -5.34375 C 3.5 -4.6875 3.609375 -4.066406 3.828125 -3.484375 C 4.046875 -2.898438 4.378906 -2.425781 4.828125 -2.0625 C 5.273438 -1.695312 5.832031 -1.515625 6.5 -1.515625 Z M 6.5 -1.515625 "/></g></g></g><g fill="#289db9" fill-opacity="1"><g transform="translate(190.719084, 237.015433)"><g/></g></g><g fill="#289db9" fill-opacity="1"><g transform="translate(197.804751, 237.015433)"><g><path d="M 7.21875 0.296875 C 6.320312 0.296875 5.453125 0.15625 4.609375 -0.125 C 3.765625 -0.414062 3.015625 -0.859375 2.359375 -1.453125 C 1.710938 -2.054688 1.226562 -2.8125 0.90625 -3.71875 L 3.21875 -4.359375 C 3.539062 -3.441406 4.097656 -2.769531 4.890625 -2.34375 C 5.691406 -1.914062 6.535156 -1.703125 7.421875 -1.703125 C 8.078125 -1.703125 8.695312 -1.8125 9.28125 -2.03125 C 9.875 -2.257812 10.359375 -2.597656 10.734375 -3.046875 C 11.109375 -3.492188 11.296875 -4.03125 11.296875 -4.65625 C 11.296875 -5.257812 11.128906 -5.742188 10.796875 -6.109375 C 10.460938 -6.472656 10.023438 -6.769531 9.484375 -7 C 8.953125 -7.238281 8.363281 -7.453125 7.71875 -7.640625 C 7.082031 -7.828125 6.4375 -8.03125 5.78125 -8.25 C 5.132812 -8.46875 4.539062 -8.742188 4 -9.078125 C 3.457031 -9.421875 3.019531 -9.863281 2.6875 -10.40625 C 2.363281 -10.957031 2.203125 -11.664062 2.203125 -12.53125 C 2.203125 -13.570312 2.492188 -14.4375 3.078125 -15.125 C 3.660156 -15.820312 4.40625 -16.34375 5.3125 -16.6875 C 6.226562 -17.039062 7.191406 -17.21875 8.203125 -17.21875 C 9.023438 -17.21875 9.832031 -17.097656 10.625 -16.859375 C 11.425781 -16.617188 12.140625 -16.265625 12.765625 -15.796875 C 13.398438 -15.335938 13.878906 -14.753906 14.203125 -14.046875 L 11.875 -13.390625 C 11.570312 -13.984375 11.0625 -14.4375 10.34375 -14.75 C 9.625 -15.0625 8.875 -15.21875 8.09375 -15.21875 C 7.488281 -15.21875 6.921875 -15.125 6.390625 -14.9375 C 5.859375 -14.75 5.425781 -14.457031 5.09375 -14.0625 C 4.769531 -13.675781 4.609375 -13.191406 4.609375 -12.609375 C 4.609375 -12.046875 4.769531 -11.585938 5.09375 -11.234375 C 5.425781 -10.878906 5.863281 -10.585938 6.40625 -10.359375 C 6.957031 -10.140625 7.554688 -9.9375 8.203125 -9.75 C 8.859375 -9.5625 9.507812 -9.351562 10.15625 -9.125 C 10.8125 -8.894531 11.410156 -8.609375 11.953125 -8.265625 C 12.503906 -7.929688 12.941406 -7.503906 13.265625 -6.984375 C 13.597656 -6.460938 13.765625 -5.796875 13.765625 -4.984375 C 13.765625 -4.140625 13.578125 -3.390625 13.203125 -2.734375 C 12.835938 -2.078125 12.34375 -1.523438 11.71875 -1.078125 C 11.09375 -0.628906 10.390625 -0.285156 9.609375 -0.046875 C 8.835938 0.179688 8.039062 0.296875 7.21875 0.296875 Z M 7.21875 0.296875 "/></g></g></g><g fill="#289db9" fill-opacity="1"><g transform="translate(213.216066, 237.015433)"><g><path d="M 5.828125 0.296875 C 4.140625 0.296875 2.859375 -0.195312 1.984375 -1.1875 C 1.117188 -2.1875 0.6875 -3.46875 0.6875 -5.03125 C 0.6875 -6.5 0.976562 -7.816406 1.5625 -8.984375 C 2.15625 -10.148438 2.976562 -11.066406 4.03125 -11.734375 C 5.09375 -12.410156 6.304688 -12.75 7.671875 -12.75 C 8.523438 -12.75 9.335938 -12.5625 10.109375 -12.1875 C 10.878906 -11.820312 11.503906 -11.253906 11.984375 -10.484375 C 12.460938 -9.722656 12.703125 -8.742188 12.703125 -7.546875 C 12.703125 -6.484375 12.53125 -5.476562 12.1875 -4.53125 C 11.851562 -3.582031 11.382812 -2.742188 10.78125 -2.015625 C 10.175781 -1.296875 9.453125 -0.726562 8.609375 -0.3125 C 7.765625 0.09375 6.835938 0.296875 5.828125 0.296875 Z M 6 -1.5625 C 6.976562 -1.5625 7.796875 -1.859375 8.453125 -2.453125 C 9.109375 -3.046875 9.601562 -3.800781 9.9375 -4.71875 C 10.28125 -5.632812 10.453125 -6.601562 10.453125 -7.625 C 10.453125 -8.851562 10.148438 -9.703125 9.546875 -10.171875 C 8.953125 -10.648438 8.21875 -10.890625 7.34375 -10.890625 C 6.34375 -10.890625 5.515625 -10.597656 4.859375 -10.015625 C 4.203125 -9.441406 3.710938 -8.707031 3.390625 -7.8125 C 3.066406 -6.925781 2.90625 -5.992188 2.90625 -5.015625 C 2.90625 -3.984375 3.164062 -3.148438 3.6875 -2.515625 C 4.21875 -1.878906 4.988281 -1.5625 6 -1.5625 Z M 6 -1.5625 "/></g></g></g><g fill="#289db9" fill-opacity="1"><g transform="translate(227.058407, 237.015433)"><g><path d="M 3.1875 0 C 2.207031 0 1.546875 -0.132812 1.203125 -0.40625 C 0.859375 -0.6875 0.6875 -1.117188 0.6875 -1.703125 C 0.6875 -2.148438 0.742188 -2.632812 0.859375 -3.15625 L 3.765625 -16.90625 L 5.953125 -16.90625 L 3.109375 -3.546875 C 3.078125 -3.359375 3.046875 -3.1875 3.015625 -3.03125 C 2.992188 -2.882812 2.984375 -2.75 2.984375 -2.625 C 2.984375 -2.375 3.054688 -2.1875 3.203125 -2.0625 C 3.359375 -1.945312 3.648438 -1.890625 4.078125 -1.890625 L 5.015625 -1.890625 L 4.609375 0 Z M 3.1875 0 "/></g></g></g><g fill="#289db9" fill-opacity="1"><g transform="translate(233.612638, 237.015433)"><g><path d="M 4.375 0.28125 C 3.144531 0.28125 2.273438 -0.0546875 1.765625 -0.734375 C 1.265625 -1.410156 1.015625 -2.242188 1.015625 -3.234375 C 1.015625 -3.847656 1.085938 -4.484375 1.234375 -5.140625 L 2.8125 -12.5625 L 4.984375 -12.5625 L 3.421875 -5.1875 C 3.347656 -4.882812 3.289062 -4.582031 3.25 -4.28125 C 3.207031 -3.988281 3.1875 -3.71875 3.1875 -3.46875 C 3.1875 -2.90625 3.328125 -2.445312 3.609375 -2.09375 C 3.890625 -1.738281 4.398438 -1.5625 5.140625 -1.5625 C 6.128906 -1.5625 7.003906 -1.90625 7.765625 -2.59375 C 8.523438 -3.28125 9.078125 -4.40625 9.421875 -5.96875 L 10.828125 -12.5625 L 12.984375 -12.5625 L 10.328125 0 L 8.6875 0 L 8.53125 -1.765625 C 7.988281 -1.054688 7.398438 -0.535156 6.765625 -0.203125 C 6.140625 0.117188 5.34375 0.28125 4.375 0.28125 Z M 4.375 0.28125 "/></g></g></g><g fill="#289db9" fill-opacity="1"><g transform="translate(247.277839, 237.015433)"><g><path d="M 4.046875 0 C 3.066406 0 2.394531 -0.132812 2.03125 -0.40625 C 1.675781 -0.6875 1.5 -1.117188 1.5 -1.703125 C 1.5 -2.066406 1.582031 -2.640625 1.75 -3.421875 L 3.34375 -10.828125 L 1.234375 -10.828125 L 1.59375 -12.5625 L 3.703125 -12.5625 L 4.375 -15.6875 L 6.5625 -15.6875 L 5.875 -12.5625 L 8.28125 -12.5625 L 7.921875 -10.828125 L 5.515625 -10.828125 L 4.046875 -4.03125 C 3.984375 -3.71875 3.929688 -3.4375 3.890625 -3.1875 C 3.847656 -2.945312 3.828125 -2.757812 3.828125 -2.625 C 3.828125 -2.363281 3.898438 -2.175781 4.046875 -2.0625 C 4.203125 -1.945312 4.488281 -1.890625 4.90625 -1.890625 L 6.03125 -1.890625 L 5.625 0 Z M 4.046875 0 "/></g></g></g><g fill="#289db9" fill-opacity="1"><g transform="translate(255.476969, 237.015433)"><g><path d="M 5.796875 -14.953125 C 5.367188 -14.953125 5 -15.109375 4.6875 -15.421875 C 4.382812 -15.734375 4.234375 -16.101562 4.234375 -16.53125 C 4.234375 -16.96875 4.382812 -17.34375 4.6875 -17.65625 C 5 -17.96875 5.367188 -18.125 5.796875 -18.125 C 6.234375 -18.125 6.609375 -17.96875 6.921875 -17.65625 C 7.234375 -17.34375 7.390625 -16.96875 7.390625 -16.53125 C 7.390625 -16.101562 7.234375 -15.734375 6.921875 -15.421875 C 6.609375 -15.109375 6.234375 -14.953125 5.796875 -14.953125 Z M 1.171875 0 L 3.46875 -10.828125 L 1.4375 -10.828125 L 1.796875 -12.5625 L 6 -12.5625 L 3.34375 0 Z M 1.171875 0 "/></g></g></g><g fill="#289db9" fill-opacity="1"><g transform="translate(262.30957, 237.015433)"><g><path d="M 5.828125 0.296875 C 4.140625 0.296875 2.859375 -0.195312 1.984375 -1.1875 C 1.117188 -2.1875 0.6875 -3.46875 0.6875 -5.03125 C 0.6875 -6.5 0.976562 -7.816406 1.5625 -8.984375 C 2.15625 -10.148438 2.976562 -11.066406 4.03125 -11.734375 C 5.09375 -12.410156 6.304688 -12.75 7.671875 -12.75 C 8.523438 -12.75 9.335938 -12.5625 10.109375 -12.1875 C 10.878906 -11.820312 11.503906 -11.253906 11.984375 -10.484375 C 12.460938 -9.722656 12.703125 -8.742188 12.703125 -7.546875 C 12.703125 -6.484375 12.53125 -5.476562 12.1875 -4.53125 C 11.851562 -3.582031 11.382812 -2.742188 10.78125 -2.015625 C 10.175781 -1.296875 9.453125 -0.726562 8.609375 -0.3125 C 7.765625 0.09375 6.835938 0.296875 5.828125 0.296875 Z M 6 -1.5625 C 6.976562 -1.5625 7.796875 -1.859375 8.453125 -2.453125 C 9.109375 -3.046875 9.601562 -3.800781 9.9375 -4.71875 C 10.28125 -5.632812 10.453125 -6.601562 10.453125 -7.625 C 10.453125 -8.851562 10.148438 -9.703125 9.546875 -10.171875 C 8.953125 -10.648438 8.21875 -10.890625 7.34375 -10.890625 C 6.34375 -10.890625 5.515625 -10.597656 4.859375 -10.015625 C 4.203125 -9.441406 3.710938 -8.707031 3.390625 -7.8125 C 3.066406 -6.925781 2.90625 -5.992188 2.90625 -5.015625 C 2.90625 -3.984375 3.164062 -3.148438 3.6875 -2.515625 C 4.21875 -1.878906 4.988281 -1.5625 6 -1.5625 Z M 6 -1.5625 "/></g></g></g><g fill="#289db9" fill-opacity="1"><g transform="translate(276.151911, 237.015433)"><g><path d="M 0.203125 0 L 2.859375 -12.5625 L 4.484375 -12.5625 L 4.625 -10.8125 C 5.050781 -11.351562 5.601562 -11.8125 6.28125 -12.1875 C 6.96875 -12.5625 7.878906 -12.75 9.015625 -12.75 C 10.078125 -12.75 10.90625 -12.460938 11.5 -11.890625 C 12.101562 -11.316406 12.40625 -10.429688 12.40625 -9.234375 C 12.40625 -8.660156 12.328125 -8.003906 12.171875 -7.265625 L 10.609375 0 L 8.453125 0 L 9.953125 -7.0625 C 10.097656 -7.800781 10.171875 -8.410156 10.171875 -8.890625 C 10.171875 -9.628906 10 -10.144531 9.65625 -10.4375 C 9.320312 -10.738281 8.796875 -10.890625 8.078125 -10.890625 C 7.460938 -10.890625 6.867188 -10.753906 6.296875 -10.484375 C 5.722656 -10.210938 5.210938 -9.753906 4.765625 -9.109375 C 4.316406 -8.472656 3.976562 -7.601562 3.75 -6.5 L 2.375 0 Z M 0.203125 0 "/></g></g></g><g fill="#289db9" fill-opacity="1"><g transform="translate(290.070178, 237.015433)"><g><path d="M 5.390625 0.296875 C 4.128906 0.296875 3.066406 0.0507812 2.203125 -0.4375 C 1.335938 -0.925781 0.6875 -1.734375 0.25 -2.859375 L 2.4375 -3.59375 C 2.5625 -2.851562 2.925781 -2.304688 3.53125 -1.953125 C 4.144531 -1.597656 4.789062 -1.421875 5.46875 -1.421875 C 6.15625 -1.421875 6.785156 -1.597656 7.359375 -1.953125 C 7.929688 -2.304688 8.21875 -2.8125 8.21875 -3.46875 C 8.21875 -3.9375 8.050781 -4.300781 7.71875 -4.5625 C 7.382812 -4.832031 6.953125 -5.050781 6.421875 -5.21875 C 5.890625 -5.382812 5.328125 -5.546875 4.734375 -5.703125 C 4.140625 -5.867188 3.578125 -6.082031 3.046875 -6.34375 C 2.515625 -6.601562 2.078125 -6.957031 1.734375 -7.40625 C 1.398438 -7.863281 1.234375 -8.472656 1.234375 -9.234375 C 1.234375 -10.023438 1.46875 -10.675781 1.9375 -11.1875 C 2.414062 -11.707031 3.019531 -12.097656 3.75 -12.359375 C 4.488281 -12.617188 5.265625 -12.75 6.078125 -12.75 C 6.765625 -12.75 7.4375 -12.648438 8.09375 -12.453125 C 8.757812 -12.265625 9.34375 -11.976562 9.84375 -11.59375 C 10.351562 -11.21875 10.707031 -10.742188 10.90625 -10.171875 L 8.890625 -9.46875 C 8.710938 -9.96875 8.328125 -10.347656 7.734375 -10.609375 C 7.148438 -10.878906 6.535156 -11.015625 5.890625 -11.015625 C 5.253906 -11.015625 4.675781 -10.878906 4.15625 -10.609375 C 3.644531 -10.335938 3.390625 -9.921875 3.390625 -9.359375 C 3.390625 -8.910156 3.554688 -8.550781 3.890625 -8.28125 C 4.234375 -8.019531 4.675781 -7.804688 5.21875 -7.640625 C 5.757812 -7.472656 6.328125 -7.304688 6.921875 -7.140625 C 7.523438 -6.984375 8.09375 -6.769531 8.625 -6.5 C 9.164062 -6.226562 9.601562 -5.867188 9.9375 -5.421875 C 10.28125 -4.984375 10.453125 -4.382812 10.453125 -3.625 C 10.453125 -2.757812 10.222656 -2.035156 9.765625 -1.453125 C 9.316406 -0.867188 8.710938 -0.429688 7.953125 -0.140625 C 7.191406 0.148438 6.335938 0.296875 5.390625 0.296875 Z M 5.390625 0.296875 "/></g></g></g><g fill="#289db9" fill-opacity="1"><g transform="translate(302.191726, 237.015433)"><g/></g></g><g fill="#289db9" fill-opacity="1"><g transform="translate(309.277392, 237.015433)"><g><path d="M 0.359375 0 L 3.953125 -16.90625 L 6.375 -16.90625 L 3.21875 -2.046875 L 12.296875 -2.046875 L 11.875 0 Z M 0.359375 0 "/></g></g></g><g fill="#289db9" fill-opacity="1"><g transform="translate(322.967913, 237.015433)"><g><path d="M 0.359375 0 L 3.953125 -16.90625 L 6.375 -16.90625 L 3.21875 -2.046875 L 12.296875 -2.046875 L 11.875 0 Z M 0.359375 0 "/></g></g></g><g fill="#289db9" fill-opacity="1"><g transform="translate(336.658433, 237.015433)"><g><path d="M 7.96875 0.296875 C 6.757812 0.296875 5.734375 0.101562 4.890625 -0.28125 C 4.046875 -0.664062 3.359375 -1.1875 2.828125 -1.84375 C 2.304688 -2.5 1.925781 -3.242188 1.6875 -4.078125 C 1.457031 -4.921875 1.34375 -5.78125 1.34375 -6.65625 C 1.34375 -8.0625 1.566406 -9.398438 2.015625 -10.671875 C 2.472656 -11.941406 3.113281 -13.066406 3.9375 -14.046875 C 4.769531 -15.023438 5.753906 -15.796875 6.890625 -16.359375 C 8.035156 -16.929688 9.289062 -17.21875 10.65625 -17.21875 C 12.125 -17.21875 13.375 -16.898438 14.40625 -16.265625 C 15.445312 -15.628906 16.171875 -14.660156 16.578125 -13.359375 L 14.328125 -12.609375 C 14.054688 -13.453125 13.570312 -14.09375 12.875 -14.53125 C 12.1875 -14.96875 11.363281 -15.1875 10.40625 -15.1875 C 9.394531 -15.1875 8.476562 -14.945312 7.65625 -14.46875 C 6.832031 -14 6.132812 -13.367188 5.5625 -12.578125 C 4.988281 -11.785156 4.546875 -10.894531 4.234375 -9.90625 C 3.921875 -8.914062 3.765625 -7.910156 3.765625 -6.890625 C 3.765625 -5.867188 3.945312 -4.96875 4.3125 -4.1875 C 4.675781 -3.40625 5.195312 -2.796875 5.875 -2.359375 C 6.550781 -1.921875 7.332031 -1.703125 8.21875 -1.703125 C 9.320312 -1.703125 10.253906 -1.910156 11.015625 -2.328125 C 11.773438 -2.753906 12.457031 -3.421875 13.0625 -4.328125 L 15.0625 -3.546875 C 14.269531 -2.265625 13.265625 -1.300781 12.046875 -0.65625 C 10.828125 -0.0195312 9.46875 0.296875 7.96875 0.296875 Z M 7.96875 0.296875 "/></g></g></g></svg>